<?xml version="1.0" encoding="UTF-8" standalone="no"?>
<!DOCTYPE svg PUBLIC "-//W3C//DTD SVG 1.1//EN" "http://www.w3.org/Graphics/SVG/1.1/DTD/svg11.dtd">
<svg version="1.1" xmlns="http://www.w3.org/2000/svg" xmlns:xlink="http://www.w3.org/1999/xlink" preserveAspectRatio="xMidYMid meet" viewBox="56.9452054794515 12.150684931506134 514.0000000000001 614" width="500" height="600"><defs><path d="M538.03 98.56C549.03 98.56 557.95 107.48 557.95 118.48C557.95 217.41 557.95 494.3 557.95 593.24C557.95 604.23 549.03 613.15 538.03 613.15C460.61 613.15 248.25 613.15 170.83 613.15C159.83 613.15 150.92 604.23 150.92 593.24C150.92 494.3 150.92 217.41 150.92 118.48C150.92 107.48 159.83 98.56 170.83 98.56C248.25 98.56 460.61 98.56 538.03 98.56Z" id="aBgxPWoCC"></path><path d="M237.39 53.06L471.47 53.06L471.47 144.07L237.39 144.07L237.39 53.06Z" id="a2s8LeLKv"></path><path d="M394.26 53.06C394.26 75.08 376.41 92.96 354.43 92.96C332.45 92.96 314.6 75.08 314.6 53.06C314.6 31.03 332.45 13.15 354.43 13.15C376.41 13.15 394.26 31.03 394.26 53.06Z" id="acdQeRYw"></path><path d="M221.94 443.72L376.58 344.31L221.94 244.89L221.94 307.91L57.95 307.91L57.95 380.86L221.94 380.86L221.94 443.72Z" id="b1pLQ6m21z"></path></defs><g><g><g><use xlink:href="#aBgxPWoCC" opacity="1" fill-opacity="0" stroke="#4c4c4c" stroke-width="26" stroke-opacity="1"></use></g></g><g><use xlink:href="#a2s8LeLKv" opacity="1" fill="#4c4c4c" fill-opacity="1"></use></g><g><use xlink:href="#acdQeRYw" opacity="1" fill="#4c4c4c" fill-opacity="1"></use></g><g><use xlink:href="#b1pLQ6m21z" opacity="1" fill="#4c4c4c" fill-opacity="1"></use></g></g></svg>