<?xml version="1.0" encoding="UTF-8" standalone="no"?>
<!DOCTYPE svg PUBLIC "-//W3C//DTD SVG 1.1//EN" "http://www.w3.org/Graphics/SVG/1.1/DTD/svg11.dtd">
<svg version="1.1" xmlns="http://www.w3.org/2000/svg" xmlns:xlink="http://www.w3.org/1999/xlink" preserveAspectRatio="xMidYMid meet" viewBox="96.00000000000001 63.03508771929825 258.0701754385965 307.7017543859649" width="251.07" height="300.7"><defs><path d="M338.07 106.84C343.59 106.84 348.07 111.32 348.07 116.84C348.07 166.42 348.07 305.16 348.07 354.74C348.07 360.26 343.59 364.74 338.07 364.74C299.19 364.74 192.56 364.74 153.68 364.74C148.16 364.74 143.68 360.26 143.68 354.74C143.68 305.16 143.68 166.42 143.68 116.84C143.68 111.32 148.16 106.84 153.68 106.84C192.56 106.84 299.19 106.84 338.07 106.84Z" id="b2WtT4ddMx"></path><path d="M187.11 84.04L304.65 84.04L304.65 129.65L187.11 129.65L187.11 84.04Z" id="e27SgiIrRB"></path><path d="M265.88 84.04C265.88 95.07 256.92 104.04 245.88 104.04C234.84 104.04 225.88 95.07 225.88 84.04C225.88 73 234.84 64.04 245.88 64.04C256.92 64.04 265.88 73 265.88 84.04Z" id="ecK2IAYdQ"></path><path d="M179.35 279.82L257 230L179.35 180.18L179.35 211.76L97 211.76L97 248.32L179.35 248.32L179.35 279.82Z" id="bljBohDER"></path></defs><g><g><use xlink:href="#b2WtT4ddMx" opacity="1" fill="#ffffff" fill-opacity="1"></use><g><use xlink:href="#b2WtT4ddMx" opacity="1" fill-opacity="0" stroke="#000000" stroke-width="12" stroke-opacity="1"></use></g></g><g><use xlink:href="#e27SgiIrRB" opacity="1" fill="#000000" fill-opacity="1"></use></g><g><use xlink:href="#ecK2IAYdQ" opacity="1" fill="#000000" fill-opacity="1"></use></g><g><use xlink:href="#bljBohDER" opacity="1" fill="#000000" fill-opacity="1"></use></g></g></svg>